<svg width="192" height="28" viewBox="0 0 192 28" fill="none" xmlns="http://www.w3.org/2000/svg">
<path d="M34.5742 13.5411C34.5742 11.8511 34.8389 10.4328 35.3684 9.28582C35.7634 8.44098 36.3026 7.68266 36.9862 7.01106C37.6697 6.33969 38.4184 5.84166 39.2323 5.5172C40.3149 5.07977 41.5633 4.86084 42.9778 4.86084C45.5381 4.86084 47.5866 5.61906 49.1235 7.1356C50.6602 8.65203 51.4289 10.761 51.4289 13.4618C51.4289 16.1403 50.6662 18.2359 49.1413 19.7485C47.6162 21.2614 45.5774 22.0177 43.0252 22.0177C40.4413 22.0177 38.3868 21.2651 36.8618 19.7599C35.3367 18.2547 34.5742 16.1818 34.5742 13.5411ZM38.1894 13.4279C38.1894 15.3066 38.6436 16.7307 39.5523 17.7002C40.4609 18.6697 41.6147 19.1544 43.0133 19.1544C44.4121 19.1544 45.5597 18.6733 46.4566 17.7114C47.3533 16.7495 47.8019 15.3066 47.8019 13.3827C47.8019 11.4814 47.3652 10.063 46.4922 9.12738C45.619 8.19192 44.4595 7.72403 43.0133 7.72403C41.5673 7.72403 40.4018 8.19764 39.5168 9.14433C38.6318 10.0913 38.1894 11.5192 38.1894 13.4279Z" fill="white"/>
<path d="M62.4283 21.7347V19.9353C61.9698 20.5767 61.3675 21.0821 60.6207 21.4518C59.874 21.8214 59.0857 22.0063 58.2561 22.0063C57.4104 22.0063 56.6519 21.8289 55.9804 21.4744C55.3087 21.12 54.8227 20.622 54.5225 19.9805C54.222 19.3393 54.072 18.4528 54.072 17.3211V9.71591H57.4026V15.2387C57.4026 16.9288 57.4638 17.9644 57.5865 18.3452C57.7088 18.7263 57.932 19.0283 58.2561 19.2505C58.58 19.4733 58.9909 19.5845 59.4888 19.5845C60.0577 19.5845 60.5674 19.4357 61.0178 19.1374C61.4681 18.8395 61.7764 18.4696 61.9422 18.0283C62.1082 17.587 62.1912 16.5063 62.1912 14.786V9.71591H65.5218V21.7347H62.4283Z" fill="white"/>
<path d="M74.7432 9.71592V12.251H72.4674V17.0947C72.4674 18.0757 72.4891 18.647 72.5326 18.8093C72.5759 18.9717 72.6749 19.1054 72.829 19.211C72.983 19.3167 73.1707 19.3694 73.392 19.3694C73.7001 19.3694 74.1465 19.2676 74.7313 19.0639L75.0158 21.5311C74.2413 21.848 73.3641 22.0063 72.3845 22.0063C71.7838 22.0063 71.2426 21.9102 70.7607 21.7177C70.2786 21.5254 69.9251 21.2764 69.6998 20.9709C69.4746 20.6653 69.3185 20.2522 69.2316 19.7316C69.1605 19.362 69.125 18.6151 69.125 17.4909V12.251H67.5959V9.71592H69.125V7.32797L72.4674 5.47195V9.71592H74.7432Z" fill="white"/>
<path d="M80.243 21.7347H76.9123V9.7159H80.0059V11.4248C80.5352 10.6176 81.0114 10.0856 81.4341 9.82909C81.8567 9.57268 82.3368 9.44426 82.8742 9.44426C83.6328 9.44426 84.3636 9.64429 85.0671 10.0441L84.0359 12.8168C83.4747 12.4699 82.9532 12.2962 82.4713 12.2962C82.0049 12.2962 81.6099 12.4189 81.2859 12.664C80.9618 12.9093 80.7071 13.3525 80.5215 13.9938C80.3357 14.6351 80.243 15.9781 80.243 18.0227V21.7347Z" fill="white"/>
<path d="M93.7906 17.9095L97.1093 18.4413C96.6827 19.6033 96.0089 20.4881 95.0885 21.0953C94.1679 21.7028 93.0161 22.0063 91.6334 22.0063C89.4446 22.0063 87.8246 21.3237 86.7738 19.958C85.9441 18.8641 85.5293 17.4833 85.5293 15.8159C85.5293 13.824 86.0745 12.2642 87.1649 11.1362C88.2554 10.0084 89.6342 9.44426 91.3016 9.44426C93.1743 9.44426 94.6518 10.0347 95.7345 11.2154C96.817 12.3963 97.3347 14.205 97.2872 16.6419H88.9429C88.9665 17.5853 89.2351 18.3189 89.7489 18.8431C90.2624 19.3676 90.9025 19.6296 91.669 19.6296C92.1906 19.6296 92.629 19.494 92.9847 19.2222C93.3402 18.9507 93.6087 18.5133 93.7906 17.9095ZM93.9802 14.6954C93.9566 13.7751 93.7076 13.0753 93.2335 12.5962C92.7594 12.117 92.1825 11.8775 91.503 11.8775C90.776 11.8775 90.1756 12.1303 89.7015 12.6357C89.2273 13.1413 88.9941 13.8279 89.0022 14.6954H93.9802Z" fill="white"/>
<path d="M102.49 13.3827L99.4681 12.8621C99.8077 11.7003 100.393 10.8402 101.222 10.2818C102.052 9.72346 103.285 9.44426 104.92 9.44426C106.406 9.44426 107.512 9.61221 108.239 9.9479C108.966 10.2837 109.478 10.71 109.774 11.2267C110.07 11.7436 110.219 12.6923 110.219 14.073L110.183 17.7851C110.183 18.8414 110.236 19.6204 110.343 20.1219C110.45 20.624 110.649 21.1614 110.942 21.7347H107.646C107.559 21.5237 107.453 21.2105 107.327 20.7955C107.271 20.6069 107.232 20.4825 107.208 20.422C106.639 20.9502 106.03 21.3463 105.383 21.6103C104.735 21.8743 104.043 22.0063 103.308 22.0063C102.012 22.0063 100.991 21.6708 100.244 20.9992C99.4977 20.3276 99.1242 19.4789 99.1242 18.4528C99.1242 17.7736 99.2941 17.1681 99.6339 16.6363C99.9737 16.1045 100.45 15.6971 101.062 15.4141C101.675 15.1311 102.558 14.8841 103.711 14.6728C105.268 14.3937 106.346 14.1334 106.947 13.8919V13.575C106.947 12.9639 106.789 12.5282 106.473 12.2679C106.157 12.0076 105.56 11.8775 104.683 11.8775C104.091 11.8775 103.628 11.9888 103.297 12.2113C102.965 12.4339 102.696 12.8244 102.49 13.3827ZM106.947 15.963C106.52 16.0989 105.845 16.2611 104.92 16.4497C103.996 16.6383 103.391 16.8232 103.107 17.0042C102.672 17.2984 102.455 17.6719 102.455 18.1244C102.455 18.5699 102.629 18.9546 102.976 19.2788C103.324 19.6033 103.767 19.7655 104.304 19.7655C104.904 19.7655 105.477 19.5769 106.023 19.1998C106.426 18.9131 106.69 18.5623 106.817 18.1471C106.904 17.8756 106.947 17.3589 106.947 16.5968V15.963Z" fill="white"/>
<path d="M124.478 13.2695L121.194 13.8353C121.083 13.2092 120.833 12.7375 120.442 12.4207C120.05 12.1039 119.543 11.9454 118.919 11.9454C118.089 11.9454 117.427 12.2189 116.933 12.7658C116.439 13.313 116.192 14.2277 116.192 15.5104C116.192 16.9361 116.443 17.9434 116.945 18.5321C117.447 19.1205 118.12 19.4147 118.966 19.4147C119.598 19.4147 120.116 19.2432 120.519 18.8997C120.922 18.5565 121.206 17.9661 121.372 17.1286L124.643 17.6605C124.304 19.0942 123.652 20.1768 122.688 20.9087C121.724 21.6405 120.432 22.0063 118.812 22.0063C116.971 22.0063 115.503 21.4518 114.408 20.3427C113.314 19.2337 112.767 17.6985 112.767 15.7366C112.767 13.7524 113.316 12.2077 114.414 11.1022C115.513 9.99706 116.998 9.44427 118.871 9.44427C120.404 9.44427 121.623 9.75944 122.528 10.3892C123.433 11.0194 124.082 11.9793 124.478 13.2695Z" fill="white"/>
<path d="M130.321 5.14371V11.2437C131.395 10.0441 132.679 9.44427 134.173 9.44427C134.939 9.44427 135.631 9.58004 136.247 9.85168C136.863 10.1233 137.328 10.4705 137.64 10.8929C137.952 11.3155 138.165 11.7832 138.28 12.2962C138.394 12.8094 138.452 13.6053 138.452 14.6842V21.7347H135.121V15.3858C135.121 14.1259 135.058 13.3261 134.932 12.9865C134.805 12.647 134.582 12.3773 134.262 12.1774C133.942 11.9776 133.541 11.8775 133.059 11.8775C132.506 11.8775 132.012 12.0059 131.577 12.2623C131.143 12.5188 130.824 12.9056 130.623 13.4223C130.422 13.9391 130.321 14.7031 130.321 15.7139V21.7347H126.99V5.14371H130.321Z" fill="white"/>
<path d="M141.854 21.7347V5.14371H147.484C149.617 5.14371 151.008 5.22687 151.656 5.39277C152.652 5.64173 153.485 6.18318 154.157 7.01679C154.828 7.8505 155.164 8.92756 155.164 10.2479C155.164 11.2664 154.971 12.1228 154.583 12.8168C154.196 13.511 153.704 14.056 153.108 14.4522C152.511 14.8482 151.905 15.1105 151.288 15.2387C150.451 15.3972 149.238 15.4763 147.65 15.4763H145.362V21.7347H141.854ZM145.362 7.95041V12.6584H147.282C148.665 12.6584 149.589 12.5718 150.056 12.3981C150.522 12.2246 150.887 11.953 151.152 11.5833C151.417 11.2137 151.549 10.7836 151.549 10.2931C151.549 9.68956 151.363 9.19164 150.992 8.79925C150.621 8.40696 150.15 8.16178 149.582 8.0636C149.163 7.98821 148.321 7.95041 147.057 7.95041H145.362V7.95041Z" fill="white"/>
<path d="M165.31 17.9095L168.629 18.4413C168.202 19.6033 167.529 20.4881 166.608 21.0953C165.687 21.7028 164.536 22.0063 163.153 22.0063C160.964 22.0063 159.344 21.3237 158.293 19.958C157.464 18.8641 157.049 17.4833 157.049 15.8159C157.049 13.824 157.594 12.2642 158.684 11.1362C159.775 10.0084 161.154 9.44426 162.821 9.44426C164.694 9.44426 166.171 10.0347 167.254 11.2154C168.336 12.3963 168.854 14.205 168.807 16.6419H160.462C160.486 17.5853 160.755 18.3189 161.268 18.8431C161.782 19.3676 162.422 19.6296 163.189 19.6296C163.71 19.6296 164.149 19.494 164.504 19.2222C164.86 18.9507 165.128 18.5133 165.31 17.9095ZM165.5 14.6954C165.476 13.7751 165.227 13.0753 164.753 12.5962C164.279 12.117 163.702 11.8775 163.023 11.8775C162.295 11.8775 161.695 12.1303 161.221 12.6357C160.747 13.1413 160.514 13.8279 160.522 14.6954H165.5Z" fill="white"/>
<path d="M177.293 9.71592V12.251H175.018V17.0947C175.018 18.0757 175.039 18.647 175.083 18.8093C175.126 18.9717 175.225 19.1054 175.379 19.211C175.533 19.3167 175.721 19.3694 175.942 19.3694C176.25 19.3694 176.697 19.2676 177.281 19.0639L177.566 21.5311C176.791 21.848 175.914 22.0063 174.935 22.0063C174.334 22.0063 173.793 21.9102 173.311 21.7177C172.829 21.5254 172.475 21.2764 172.25 20.9709C172.025 20.6653 171.869 20.2522 171.782 19.7316C171.711 19.362 171.675 18.6151 171.675 17.4909V12.251H170.146V9.71592H171.675V7.32797L175.018 5.47195V9.71592H177.293Z" fill="white"/>
<path d="M186.894 17.9095L190.213 18.4413C189.786 19.6033 189.113 20.4881 188.192 21.0953C187.271 21.7028 186.12 22.0063 184.737 22.0063C182.548 22.0063 180.928 21.3237 179.877 19.958C179.048 18.8641 178.633 17.4833 178.633 15.8159C178.633 13.824 179.178 12.2642 180.268 11.1362C181.359 10.0084 182.738 9.44426 184.405 9.44426C186.278 9.44426 187.755 10.0347 188.838 11.2154C189.92 12.3963 190.438 14.205 190.391 16.6419H182.046C182.07 17.5853 182.339 18.3189 182.852 18.8431C183.366 19.3676 184.006 19.6296 184.773 19.6296C185.294 19.6296 185.732 19.494 186.088 19.2222C186.444 18.9507 186.712 18.5133 186.894 17.9095ZM187.084 14.6954C187.06 13.7751 186.811 13.0753 186.337 12.5962C185.863 12.117 185.286 11.8775 184.606 11.8775C183.879 11.8775 183.279 12.1303 182.805 12.6357C182.331 13.1413 182.098 13.8279 182.106 14.6954H187.084Z" fill="white"/>
<path d="M26.2553 9.88627C23.3222 4.0962 19.3138 0.155536 17.3021 1.08455C15.2905 2.01357 16.0375 7.46047 18.9706 13.2505C21.9036 19.0406 25.9121 22.9813 27.9237 22.0523C29.9354 21.1232 29.1884 15.6763 26.2553 9.88627ZM26.5182 18.7204C25.6676 19.1132 23.3038 16.1265 21.2385 12.0494C19.1732 7.97232 18.1884 4.34873 19.039 3.9559C19.8896 3.56308 22.2534 6.54977 24.3188 10.6269C26.3841 14.704 27.3688 18.3275 26.5182 18.7204Z" fill="white"/>
<path d="M23.9139 21.592L5.57313 22.1878C3.3991 19.7808 3.42962 17.6943 3.42962 17.6943L15.1831 4.27841C15.1984 4.64324 15.2336 5.0389 15.2929 5.46818C15.6216 7.86454 16.6082 10.7759 18.0721 13.6655C19.3815 16.2501 20.978 18.61 22.5669 20.3109C22.9613 20.7323 23.4179 21.1807 23.9139 21.592Z" fill="white"/>
<path d="M2.78656 17.7384C2.78656 17.7384 2.46502 20.8962 5.15984 22.5482C5.15984 22.5482 5.0986 23.4108 4.22584 23.557C3.35308 23.7032 2.00567 22.0804 1.54632 20.8816C1.08698 19.6828 0.918551 18.6302 1.27072 17.8407C1.62288 17.0512 2.66407 17.5483 2.78656 17.7384Z" fill="white"/>
<path d="M12.3869 22.8845V23.7763C12.3869 24.5676 13.0587 25.209 13.8874 25.209H15.4186C16.2473 25.209 16.9191 24.5676 16.9191 23.7763V22.7237H18.9862V23.9371C18.9862 25.6569 17.526 27.0511 15.7248 27.0511H13.6577C11.8565 27.0511 10.3964 25.6569 10.3964 23.9371V22.8699L12.3869 22.8845Z" fill="white"/>
</svg>
